<svg width="216" height="230" viewBox="0 0 216 230" fill="none" xmlns="http://www.w3.org/2000/svg">
<g clip-path="url(#clip0)">
<path opacity="0.18" d="M45.3029 177.175C38.0811 185.606 27.828 192.424 25.2128 203.212C23.1637 211.655 26.9422 221.195 34.214 225.937C40.4306 230.012 48.3649 230.539 55.7215 229.626C63.0781 228.714 70.2614 226.545 77.6296 225.601C86.3882 224.508 95.2662 225.216 104.079 224.743C112.891 224.269 122.012 222.381 128.91 216.878C131.04 215.179 132.966 213.08 133.833 210.495C134.745 207.757 134.383 204.783 134.426 201.895C134.526 197.392 135.623 192.968 137.639 188.941C139.654 184.914 142.537 181.383 146.081 178.604C150.129 175.473 154.939 173.404 158.826 170.069C162.034 167.255 164.482 163.679 165.945 159.671C167.407 155.663 167.837 151.351 167.195 147.132C166.702 144.097 100.605 146.967 94.1877 147.202C88.2152 147.425 82.2426 147.698 76.27 148.022C72.2296 148.242 63.9448 147.202 60.7055 149.902C57.7899 152.328 56.2839 159.573 54.4852 163.047C51.9007 168.05 48.9696 172.884 45.3029 177.175Z" fill="#E5E9F2"/>
<path d="M214.686 9.83598V139.358C214.687 141.954 213.657 144.443 211.824 146.28C209.99 148.117 207.502 149.15 204.907 149.153H9.79084C7.19415 149.153 4.70381 148.122 2.86767 146.286C1.03153 144.449 0 141.959 0 139.362H0V9.83598C0.00611572 7.24258 1.0401 4.75738 2.87536 2.92502C4.71061 1.09265 7.19744 0.0625785 9.79084 0.0605469H204.907C207.498 0.0656328 209.982 1.09705 211.815 2.92909C213.647 4.76113 214.68 7.24458 214.686 9.83598V9.83598Z" fill="#E5E9F2"/>
<path d="M214.686 9.83598V139.358C214.687 141.954 213.657 144.443 211.824 146.28C209.99 148.117 207.502 149.15 204.907 149.153H9.79084C7.19415 149.153 4.70381 148.122 2.86767 146.286C1.03153 144.449 0 141.959 0 139.362H0V9.83598C0.00611572 7.24258 1.0401 4.75738 2.87536 2.92502C4.71061 1.09265 7.19744 0.0625785 9.79084 0.0605469H204.907C207.498 0.0656328 209.982 1.09705 211.815 2.92909C213.647 4.76113 214.68 7.24458 214.686 9.83598V9.83598Z" fill="url(#paint0_linear)"/>
<path opacity="0.19" d="M60.6901 26.2524L57.4894 27.7584V92.3156L65.8628 122.543L67.0183 148.734L88.2023 149.119V103.967L96.957 91.0214L157.196 90.7865V87.4317L60.6901 26.2524ZM89.0535 92.4119C88.2061 94.3377 86.4036 96.1402 85.1441 97.8272C83.6034 99.902 82.0384 101.97 80.4489 104.032C80.3095 104.238 80.1316 104.414 79.9251 104.552C79.1818 104.972 78.319 104.275 77.7798 103.616C74.6841 99.875 72.2944 95.6021 70.7274 91.006C70.621 90.7807 70.6032 90.5236 70.6774 90.2858C70.8353 89.9391 71.309 89.9006 71.6903 89.9006C76.4664 90.0315 81.2424 90.192 86.0184 90.382C87.6515 90.4437 90.0587 90.0932 89.0496 92.4003L89.0535 92.4119Z" fill="url(#paint1_linear)"/>
<path d="M159.581 24.3496H60.6863V88.7257H159.581V24.3496Z" fill="white"/>
<path d="M156.056 27.7471H64.3877V85.3289H156.056V27.7471Z" fill="#EFF2F7"/>
<path d="M156.056 59.0143V85.3287H64.3877V67.8731C69.6105 62.0417 77.3292 58.1785 84.2043 53.4064C85.4552 52.4616 86.8173 51.6738 88.2601 51.0607C94.1608 48.8345 100.42 52.7131 105.785 56.0293C112.282 60.0453 119.128 63.4654 126.241 66.2477C123.85 62.7889 120.384 60.2164 116.381 58.9296L125.733 51.1801C126.888 50.2211 128.082 49.2543 129.496 48.7343C132.334 47.7213 135.454 48.7767 138.254 49.8898C142.173 51.4536 146.032 53.1521 149.832 54.9855C152.066 56.0794 154.331 57.2464 156.056 59.0143Z" fill="#E0E6ED"/>
<path opacity="0.19" d="M67.9273 72.6071C68.5744 73.3504 69.1945 74.2748 70.1651 74.4327C70.4711 74.4374 70.7733 74.5015 71.0549 74.6215C71.44 74.8603 71.4862 75.3918 71.4978 75.8347C71.5517 77.835 71.6044 79.8327 71.6557 81.8279C71.6865 82.9487 71.6557 84.1851 70.9316 85.0247C70.6004 85.4099 70.1613 85.6564 69.8108 86.0338C69.6231 86.2034 69.4976 86.431 69.4544 86.6802C69.4111 86.9294 69.4525 87.1859 69.572 87.4089C71.5225 87.4142 73.4547 87.7853 75.2685 88.5027L64.7844 88.7184C64.5196 88.7483 64.2519 88.7001 64.0141 88.5798C63.6559 88.3448 63.602 87.8518 63.5904 87.4243C63.548 85.7103 63.5904 83.9963 63.6828 82.2862C63.7932 81.1507 63.8113 80.0082 63.7368 78.8698C63.5942 77.4409 63.1051 76.0119 63.3824 74.6022C63.8215 72.3259 66.0824 70.4848 67.9273 72.6071Z" fill="url(#paint2_linear)"/>
<path d="M142.784 45.1177C146.196 45.1177 148.962 42.3518 148.962 38.9397C148.962 35.5277 146.196 32.7617 142.784 32.7617C139.372 32.7617 136.606 35.5277 136.606 38.9397C136.606 42.3518 139.372 45.1177 142.784 45.1177Z" fill="white"/>
<path d="M67.0183 224.126C67.3248 224.126 67.6187 224.004 67.8354 223.788C68.0521 223.571 68.1738 223.277 68.1738 222.971V105.685C68.1738 105.378 68.0521 105.084 67.8354 104.868C67.6187 104.651 67.3248 104.529 67.0183 104.529C66.7119 104.529 66.418 104.651 66.2013 104.868C65.9846 105.084 65.8629 105.378 65.8629 105.685V222.959C65.8629 223.266 65.9846 223.56 66.2013 223.776C66.418 223.993 66.7119 224.115 67.0183 224.115V224.126Z" fill="#E5E9F2"/>
<path d="M83.5495 224.126C83.856 224.126 84.1499 224.004 84.3666 223.788C84.5833 223.571 84.705 223.277 84.705 222.971V105.685C84.705 105.378 84.5833 105.084 84.3666 104.868C84.1499 104.651 83.856 104.529 83.5495 104.529V104.529C83.2431 104.529 82.9492 104.651 82.7325 104.868C82.5158 105.084 82.394 105.378 82.394 105.685V222.959C82.394 223.266 82.5158 223.56 82.7325 223.776C82.9492 223.993 83.2431 224.115 83.5495 224.115V224.126Z" fill="#E5E9F2"/>
<path d="M83.5495 114.528H67.0222V117.19H83.5495V114.528Z" fill="#E5E9F2"/>
<path d="M83.5495 131.618H67.0222V134.279H83.5495V131.618Z" fill="#E5E9F2"/>
<path d="M83.5495 148.704H67.0222V151.365H83.5495V148.704Z" fill="#E5E9F2"/>
<path d="M83.5495 165.793H67.0222V168.455H83.5495V165.793Z" fill="#E5E9F2"/>
<path d="M83.5495 182.879H67.0222V185.54H83.5495V182.879Z" fill="#E5E9F2"/>
<path d="M83.5495 199.969H67.0222V202.63H83.5495V199.969Z" fill="#E5E9F2"/>
<path d="M67.0183 224.126C67.3248 224.126 67.6187 224.004 67.8354 223.788C68.0521 223.571 68.1738 223.277 68.1738 222.971V105.685C68.1738 105.378 68.0521 105.084 67.8354 104.868C67.6187 104.651 67.3248 104.529 67.0183 104.529C66.7119 104.529 66.418 104.651 66.2013 104.868C65.9846 105.084 65.8629 105.378 65.8629 105.685V222.959C65.8629 223.266 65.9846 223.56 66.2013 223.776C66.418 223.993 66.7119 224.115 67.0183 224.115V224.126Z" fill="url(#paint3_linear)"/>
<path d="M83.5495 224.126C83.856 224.126 84.1499 224.004 84.3666 223.788C84.5833 223.571 84.705 223.277 84.705 222.971V105.685C84.705 105.378 84.5833 105.084 84.3666 104.868C84.1499 104.651 83.856 104.529 83.5495 104.529V104.529C83.2431 104.529 82.9492 104.651 82.7325 104.868C82.5158 105.084 82.394 105.378 82.394 105.685V222.959C82.394 223.266 82.5158 223.56 82.7325 223.776C82.9492 223.993 83.2431 224.115 83.5495 224.115V224.126Z" fill="url(#paint4_linear)"/>
<path d="M83.5495 114.528H67.0222V117.19H83.5495V114.528Z" fill="url(#paint5_linear)"/>
<path d="M83.5495 131.618H67.0222V134.279H83.5495V131.618Z" fill="url(#paint6_linear)"/>
<path d="M83.5495 148.704H67.0222V151.365H83.5495V148.704Z" fill="url(#paint7_linear)"/>
<path d="M83.5495 165.793H67.0222V168.455H83.5495V165.793Z" fill="url(#paint8_linear)"/>
<path d="M83.5495 182.879H67.0222V185.54H83.5495V182.879Z" fill="url(#paint9_linear)"/>
<path d="M83.5495 199.969H67.0222V202.63H83.5495V199.969Z" fill="url(#paint10_linear)"/>
<path d="M215.329 9.79854V11.7244H0.639343V9.79854C0.639343 7.20047 1.67116 4.70876 3.50791 2.87129C5.34466 1.03382 7.83597 0.00102125 10.434 0H205.534C208.132 0.00102079 210.623 1.03329 212.459 2.86993C214.296 4.70657 215.328 7.19729 215.329 9.79469V9.79854Z" fill="#E5E9F2"/>
<path d="M215.329 9.79854V11.7244H0.639343V9.79854C0.639343 7.20047 1.67116 4.70876 3.50791 2.87129C5.34466 1.03382 7.83597 0.00102125 10.434 0H205.534C208.132 0.00102079 210.623 1.03329 212.459 2.86993C214.296 4.70657 215.328 7.19729 215.329 9.79469V9.79854Z" fill="#E5E9F2"/>
<path d="M215.329 9.79854V11.7244H0.639343V9.79854C0.639343 7.20047 1.67116 4.70876 3.50791 2.87129C5.34466 1.03382 7.83597 0.00102125 10.434 0H205.534C208.132 0.00102079 210.623 1.03329 212.459 2.86993C214.296 4.70657 215.328 7.19729 215.329 9.79469V9.79854Z" fill="#F9FAFC"/>
<path d="M11.7744 5.86975C11.7744 6.17447 11.6841 6.47234 11.5148 6.72569C11.3455 6.97905 11.1049 7.17652 10.8233 7.29313C10.5418 7.40974 10.2321 7.44025 9.9332 7.3808C9.63434 7.32136 9.35983 7.17462 9.14436 6.95916C8.9289 6.7437 8.78217 6.46918 8.72272 6.17032C8.66327 5.87146 8.69378 5.56169 8.81039 5.28017C8.927 4.99865 9.12447 4.75804 9.37783 4.58875C9.63119 4.41946 9.92906 4.3291 10.2338 4.3291C10.6424 4.3291 11.0342 4.49142 11.3232 4.78035C11.6121 5.06928 11.7744 5.46115 11.7744 5.86975Z" fill="#C0CCDA"/>
<path d="M18.9577 5.86975C18.9577 6.17447 18.8673 6.47234 18.6981 6.72569C18.5288 6.97905 18.2882 7.17652 18.0066 7.29313C17.7251 7.40974 17.4153 7.44025 17.1165 7.3808C16.8176 7.32136 16.5431 7.17462 16.3276 6.95916C16.1122 6.7437 15.9655 6.46918 15.906 6.17032C15.8466 5.87146 15.8771 5.56169 15.9937 5.28017C16.1103 4.99865 16.3078 4.75804 16.5611 4.58875C16.8145 4.41946 17.1123 4.3291 17.4171 4.3291C17.8257 4.3291 18.2175 4.49142 18.5065 4.78035C18.7954 5.06928 18.9577 5.46115 18.9577 5.86975Z" fill="#C0CCDA"/>
<path d="M24.5927 7.4103C25.4457 7.4103 26.1372 6.7188 26.1372 5.86579C26.1372 5.01279 25.4457 4.32129 24.5927 4.32129C23.7397 4.32129 23.0482 5.01279 23.0482 5.86579C23.0482 6.7188 23.7397 7.4103 24.5927 7.4103Z" fill="#C0CCDA"/>
<path d="M47.0168 11.7358V149.12H10.4263C7.8293 149.12 5.33856 148.088 3.50181 146.252C1.66506 144.416 0.632674 141.926 0.631653 139.329V11.7358H47.0168Z" fill="#EFF2F7"/>
<path d="M40.8273 33.7941H7.22566C6.95323 33.7931 6.69224 33.6844 6.4996 33.4917C6.30696 33.2991 6.19829 33.0381 6.19727 32.7657C6.19677 32.6311 6.22276 32.4978 6.27378 32.3733C6.3248 32.2488 6.39985 32.1356 6.49463 32.0401C6.5894 31.9446 6.70207 31.8687 6.82617 31.8168C6.95028 31.7648 7.08341 31.7378 7.21795 31.7373H40.8273C41.0997 31.7383 41.3607 31.847 41.5533 32.0396C41.746 32.2323 41.8546 32.4933 41.8556 32.7657V32.7657C41.8546 33.0381 41.746 33.2991 41.5533 33.4917C41.3607 33.6844 41.0997 33.7931 40.8273 33.7941Z" fill="url(#paint11_linear)"/>
<path d="M40.8273 52.7906H7.22565C6.95322 52.7896 6.69223 52.6809 6.49959 52.4883C6.30695 52.2956 6.19828 52.0346 6.19727 51.7622V51.7622C6.19726 51.4898 6.30495 51.2284 6.49687 51.035C6.68879 50.8417 6.94937 50.732 7.2218 50.73H40.8273C41.1004 50.731 41.3619 50.8402 41.5547 51.0337C41.7474 51.2271 41.8556 51.4891 41.8556 51.7622C41.8536 52.0343 41.7446 52.2947 41.5522 52.4872C41.3598 52.6796 41.0994 52.7886 40.8273 52.7906V52.7906Z" fill="url(#paint12_linear)"/>
<path d="M40.8272 71.7904H7.22564C6.95321 71.7894 6.69223 71.6807 6.49959 71.4881C6.30695 71.2954 6.19827 71.0344 6.19726 70.762C6.19522 70.6255 6.22029 70.4899 6.27101 70.3631C6.32173 70.2364 6.39709 70.1209 6.49274 70.0235C6.58839 69.926 6.70241 69.8486 6.82822 69.7955C6.95402 69.7424 7.08911 69.7148 7.22564 69.7144H40.8272C41.0994 69.7164 41.3598 69.8254 41.5522 70.0178C41.7446 70.2102 41.8536 70.4706 41.8556 70.7427V70.7427C41.8577 70.8793 41.8326 71.0148 41.7819 71.1416C41.7312 71.2684 41.6558 71.3838 41.5601 71.4813C41.4645 71.5787 41.3505 71.6562 41.2247 71.7093C41.0989 71.7623 40.9638 71.7899 40.8272 71.7904Z" fill="url(#paint13_linear)"/>
<path d="M40.8273 90.7864H7.22566C7.09111 90.7869 6.95779 90.7609 6.83329 90.7099C6.7088 90.6589 6.59557 90.5838 6.50007 90.4891C6.40458 90.3943 6.32869 90.2816 6.27673 90.1575C6.22478 90.0334 6.19778 89.9003 6.19727 89.7657C6.19677 89.6312 6.22276 89.4979 6.27378 89.3734C6.3248 89.2489 6.39985 89.1356 6.49463 89.0401C6.5894 88.9446 6.70207 88.8688 6.82617 88.8168C6.95028 88.7648 7.08341 88.7378 7.21795 88.7373H40.8273C41.0978 88.7352 41.3583 88.8394 41.5527 89.0274C41.7472 89.2154 41.8601 89.4722 41.8672 89.7426V89.7426C41.8687 89.8798 41.8429 90.0159 41.7913 90.143C41.7396 90.2701 41.6631 90.3856 41.5663 90.4828C41.4695 90.5799 41.3542 90.6568 41.2273 90.709C41.1005 90.7611 40.9644 90.7874 40.8273 90.7864V90.7864Z" fill="url(#paint14_linear)"/>
<path d="M52.6556 103.863C52.6556 103.863 50.9647 104.313 49.9903 103.351C49.0158 102.388 49.5204 99.2947 49.5204 99.2947L67.0183 78.0723L67.365 84.0384L52.6556 103.863Z" fill="#DBEEFE"/>
<path d="M160.821 104.514H126.048V117.378H160.821V104.514Z" fill="#E5E9F2"/>
<path d="M215.329 11.7358V139.321C215.33 140.607 215.078 141.88 214.587 143.068C214.096 144.257 213.375 145.337 212.467 146.246C211.558 147.156 210.48 147.878 209.292 148.371C208.105 148.864 206.832 149.119 205.546 149.12H173.046V11.7358H215.329Z" fill="#EFF2F7"/>
<path d="M215.329 47.9722H173.046V105.069H215.329V47.9722Z" fill="url(#paint15_linear)"/>
<path d="M76.4818 104.518C76.4818 104.518 79.074 108.108 80.7379 108.192C82.4018 108.277 92.4391 90.4209 92.4391 90.4209L94.6384 88.73C94.6384 88.73 89.8662 87.9597 89.223 88.834C88.5798 89.7083 81.1692 101.93 81.1692 101.93L80.1139 101.394L76.4818 104.518Z" fill="#DBEEFE"/>
<path d="M57.2429 122.258C57.2429 122.258 56.4726 127.169 57.2429 129.191C58.0132 131.213 64.7921 143.281 64.7921 143.281L63.0434 161.768H68.559L71.2204 143.281L68.1738 129.191L71.7597 121.295L57.2429 122.258Z" fill="#336587"/>
<path d="M62.3694 128.101L74.2209 148.707L75.6729 164.322L80.9998 163.028L80.1139 143.92L72.5839 120.914L61.0291 122.008C61.0291 122.008 61.3141 126.414 62.3694 128.101Z" fill="#407CA3"/>
<path d="M76.4279 164.141C76.4279 164.141 77.0518 168.17 77.3368 168.462C77.6219 168.755 79.8558 168.181 79.8558 168.181L83.5495 165.797C83.5495 165.797 83.5495 164.641 80.7686 165.319C80.7686 165.319 79.5284 165.393 79.436 163.394L76.4279 164.141Z" fill="#DBEEFE"/>
<path d="M68.559 161.741L68.1738 163.586L71.3283 165.793C71.3283 165.793 71.2012 166.375 70.0843 166.633C68.9673 166.891 63.991 166.475 63.9217 165.974C63.8523 165.473 64.7228 163.887 64.7921 163.713C64.8614 163.54 65.2081 161.741 65.2081 161.741H68.559Z" fill="#DBEEFE"/>
<path d="M61.3911 88.1097C61.3911 88.1097 56.3185 89.3423 55.6329 90.9908C54.9473 92.6393 49.3817 97.7889 49.5204 99.8187C49.659 101.848 53.476 104.464 53.476 104.464L56.3955 101.617L56.7229 120.852C56.731 121.317 56.8837 121.768 57.1598 122.142C57.4359 122.516 57.8217 122.795 58.2636 122.94C60.459 123.653 62.8239 123.51 65.8513 122.509C70.1612 121.084 72.6764 121.226 72.6764 121.226L71.933 100.812L75.438 105.38L80.1138 101.371C80.1138 101.371 73.2464 90.2012 72.0755 89.5079C70.9046 88.8146 65.6625 88.0327 65.6625 88.0327C65.6625 88.0327 63.3477 89.4386 61.3911 88.1097Z" fill="#E5E9F2"/>
<path d="M61.3911 88.1097C61.3911 88.1097 56.3185 89.3423 55.6329 90.9908C54.9473 92.6393 49.3817 97.7889 49.5204 99.8187C49.659 101.848 53.476 104.464 53.476 104.464L56.3955 101.617L56.7229 120.852C56.731 121.317 56.8837 121.768 57.1598 122.142C57.4359 122.516 57.8217 122.795 58.2636 122.94C60.459 123.653 62.8239 123.51 65.8513 122.509C70.1612 121.084 72.6764 121.226 72.6764 121.226L71.933 100.812L75.438 105.38L80.1138 101.371C80.1138 101.371 73.2464 90.2012 72.0755 89.5079C70.9046 88.8146 65.6625 88.0327 65.6625 88.0327C65.6625 88.0327 63.3477 89.4386 61.3911 88.1097Z" fill="#EFF7FF"/>
<path d="M67.9812 76.7825C68.243 78.2268 68.4052 79.6875 68.4665 81.1541C68.5246 81.7037 68.4934 82.259 68.3741 82.7987C68.3114 83.0681 68.1884 83.3197 68.0142 83.5345C67.8401 83.7494 67.6194 83.9218 67.3688 84.0389C67.0442 84.1129 66.728 84.22 66.4252 84.3586C66.2014 84.5202 66.043 84.7566 65.9784 85.0249C65.8898 85.5347 65.8898 86.0559 65.9784 86.5656C66.0582 87.0787 65.9442 87.6032 65.6587 88.0369C65.4018 88.309 65.0712 88.5004 64.7073 88.5877C63.8452 88.8579 62.927 88.8951 62.0459 88.6955C61.9065 88.6727 61.7746 88.6172 61.6607 88.5338C61.5411 88.4127 61.4548 88.2628 61.4103 88.0985C61.0905 87.1144 60.8332 86.1109 60.64 85.0943C60.2804 83.6734 60.0599 82.2209 59.9814 80.7573C59.9052 79.2846 60.2845 77.8241 61.0675 76.5745C61.8918 75.3612 63.3092 74.4984 64.7728 74.5947C65.5859 74.6945 66.3756 74.9343 67.1069 75.3034C67.7116 75.5962 67.8503 76.12 67.9812 76.7825Z" fill="#DBEEFE"/>
<path d="M67.9813 74.7833C68.0198 74.0553 67.442 73.4468 66.8604 73.0116C66.7501 72.9396 66.6524 72.8498 66.5716 72.7458C66.4907 72.584 66.4286 72.4134 66.3867 72.2374C66.1517 71.5749 65.366 71.2783 64.6612 71.2783C63.9563 71.2783 63.2669 71.4902 62.5659 71.4709C62.0112 71.4709 61.4104 71.3014 60.9174 71.5364C60.6252 71.6941 60.3755 71.92 60.1894 72.195C59.839 72.5993 59.5931 73.0833 59.473 73.6047C59.4499 73.8397 59.4191 74.0746 59.3729 74.3096C59.292 74.5698 59.1611 74.8118 58.9877 75.0221C58.2559 76.0274 57.189 76.8709 56.9271 78.0841C56.7615 78.8545 56.5959 79.7404 56.9656 80.4336C60.5515 87.1085 61.4605 87.4937 61.8456 87.4282C62.2308 87.3627 64.2413 87.2818 64.4532 84.7321C64.5025 84.5608 64.5195 84.3819 64.5033 84.2044C64.45 84.0587 64.3644 83.927 64.2529 83.8192C63.9983 83.5684 63.7874 83.2768 63.6289 82.9565C63.5495 82.7967 63.5082 82.6207 63.5082 82.4423C63.5082 82.2639 63.5495 82.0879 63.6289 81.9281C63.696 81.8282 63.7821 81.7425 63.8824 81.676C63.9826 81.6094 64.0951 81.5634 64.2132 81.5405C64.3313 81.5176 64.4528 81.5183 64.5707 81.5425C64.6885 81.5667 64.8004 81.614 64.9 81.6816C64.9646 81.7232 65.0229 81.7738 65.0733 81.8318C65.3121 81.1501 64.6034 80.3797 64.8961 79.7172C65.0694 79.3321 65.5586 79.1202 65.7281 78.7158C65.9515 78.1766 65.5509 77.4294 65.9784 77.0327C66.122 76.9333 66.2741 76.8469 66.4329 76.7746C66.6756 76.6244 66.7256 76.4241 66.845 76.1891C66.9644 75.9542 66.9953 75.9773 67.2533 75.8425C67.4546 75.7422 67.627 75.5924 67.7543 75.4071C67.8817 75.2218 67.9598 75.0071 67.9813 74.7833V74.7833Z" fill="#4F94BE"/>
<path d="M77.6373 166.248C78.4345 166.055 78.916 165.258 79.5862 164.781C79.7424 164.662 79.9224 164.58 80.1139 164.538C80.3326 164.521 80.5525 164.532 80.7686 164.569C81.3271 164.619 81.8856 164.492 82.4479 164.492C82.7266 164.492 83.0043 164.523 83.2761 164.584C83.5642 164.637 83.8314 164.77 84.0464 164.969C84.1528 165.07 84.2264 165.2 84.2573 165.343C84.2882 165.486 84.2751 165.635 84.2197 165.77C84.1261 165.929 83.9936 166.062 83.8345 166.156C82.5507 167.041 81.2539 167.925 79.9444 168.806C79.5585 169.095 79.1296 169.323 78.6733 169.48C78.2413 169.602 77.7827 169.592 77.3561 169.453C77.184 169.406 77.0289 169.311 76.9093 169.179C76.8204 169.056 76.7587 168.916 76.7283 168.767C76.5781 168.228 76.2892 167.45 76.397 166.884C76.5049 166.317 77.1828 166.36 77.6373 166.248Z" fill="#407CA3"/>
<path d="M64.0796 164.388L63.6212 165.928C63.5717 166.036 63.5461 166.154 63.5461 166.273C63.5461 166.392 63.5717 166.509 63.6212 166.618C63.7496 166.762 63.9262 166.855 64.1181 166.88C64.5696 167.005 65.0308 167.093 65.497 167.141C66.2095 167.192 66.9182 167.057 67.6269 167.076C68.4319 167.099 69.2485 167.322 70.0226 167.114C70.4929 166.957 70.934 166.722 71.3283 166.421L72.0717 165.909C72.1334 165.877 72.1814 165.824 72.2065 165.759C72.2335 165.662 72.1564 165.57 72.0794 165.505C71.5171 165.019 70.739 164.892 70.0457 164.619C69.4122 164.367 68.8386 163.986 68.3626 163.498C68.2716 163.383 68.1481 163.299 68.0082 163.255C67.7771 163.209 67.5769 163.409 67.3766 163.536C66.9696 163.753 66.5044 163.835 66.0478 163.771C65.705 163.721 65.6934 163.544 65.4816 163.321C64.8191 162.639 64.2336 163.868 64.0796 164.388Z" fill="#407CA3"/>
</g>
<defs>
<linearGradient id="paint0_linear" x1="103.547" y1="170.849" x2="109.64" y2="16.3414" gradientUnits="userSpaceOnUse">
<stop stop-color="white" stop-opacity="0"/>
<stop offset="1" stop-color="white"/>
</linearGradient>
<linearGradient id="paint1_linear" x1="57.4894" y1="87.6936" x2="157.189" y2="87.6936" gradientUnits="userSpaceOnUse">
<stop stop-color="#183866"/>
<stop offset="1" stop-color="#1A7FC1"/>
</linearGradient>
<linearGradient id="paint2_linear" x1="3340.26" y1="6756.48" x2="3712.28" y2="6756.48" gradientUnits="userSpaceOnUse">
<stop stop-color="#183866"/>
<stop offset="1" stop-color="#1A7FC1"/>
</linearGradient>
<linearGradient id="paint3_linear" x1="713.885" y1="20855.8" x2="727.89" y2="20855.8" gradientUnits="userSpaceOnUse">
<stop stop-opacity="0"/>
<stop offset="0.97"/>
</linearGradient>
<linearGradient id="paint4_linear" x1="829.583" y1="20855.8" x2="843.588" y2="20855.8" gradientUnits="userSpaceOnUse">
<stop stop-opacity="0"/>
<stop offset="0.97"/>
</linearGradient>
<linearGradient id="paint5_linear" x1="2942.95" y1="-679.717" x2="3652.14" y2="-679.717" gradientUnits="userSpaceOnUse">
<stop stop-opacity="0"/>
<stop offset="0.97"/>
</linearGradient>
<linearGradient id="paint6_linear" x1="2942.95" y1="-578.712" x2="3652.14" y2="-578.712" gradientUnits="userSpaceOnUse">
<stop stop-opacity="0"/>
<stop offset="0.97"/>
</linearGradient>
<linearGradient id="paint7_linear" x1="2942.95" y1="-477.769" x2="3652.14" y2="-477.769" gradientUnits="userSpaceOnUse">
<stop stop-opacity="0"/>
<stop offset="0.97"/>
</linearGradient>
<linearGradient id="paint8_linear" x1="2942.95" y1="-376.735" x2="3652.14" y2="-376.735" gradientUnits="userSpaceOnUse">
<stop stop-opacity="0"/>
<stop offset="0.97"/>
</linearGradient>
<linearGradient id="paint9_linear" x1="2942.95" y1="-275.791" x2="3652.14" y2="-275.791" gradientUnits="userSpaceOnUse">
<stop stop-opacity="0"/>
<stop offset="0.97"/>
</linearGradient>
<linearGradient id="paint10_linear" x1="2942.95" y1="-174.793" x2="3652.14" y2="-174.793" gradientUnits="userSpaceOnUse">
<stop stop-opacity="0"/>
<stop offset="0.97"/>
</linearGradient>
<linearGradient id="paint11_linear" x1="59.3228" y1="27.073" x2="38.0425" y2="30.5048" gradientUnits="userSpaceOnUse">
<stop stop-color="#68E1FD"/>
<stop offset="0.08" stop-color="#84E6FD"/>
<stop offset="0.21" stop-color="#A9EEFE"/>
<stop offset="0.35" stop-color="#C8F4FE"/>
<stop offset="0.49" stop-color="#E0F9FF"/>
<stop offset="0.64" stop-color="#F2FCFF"/>
<stop offset="0.8" stop-color="#FCFEFF"/>
<stop offset="1" stop-color="white"/>
</linearGradient>
<linearGradient id="paint12_linear" x1="9677.11" y1="1043.53" x2="9446.98" y2="401.431" gradientUnits="userSpaceOnUse">
<stop stop-color="#68E1FD"/>
<stop offset="0.08" stop-color="#84E6FD"/>
<stop offset="0.21" stop-color="#A9EEFE"/>
<stop offset="0.35" stop-color="#C8F4FE"/>
<stop offset="0.49" stop-color="#E0F9FF"/>
<stop offset="0.64" stop-color="#F2FCFF"/>
<stop offset="0.8" stop-color="#FCFEFF"/>
<stop offset="1" stop-color="white"/>
</linearGradient>
<linearGradient id="paint13_linear" x1="9953.52" y1="970.135" x2="9720.44" y2="324.53" gradientUnits="userSpaceOnUse">
<stop stop-color="#68E1FD"/>
<stop offset="0.08" stop-color="#84E6FD"/>
<stop offset="0.21" stop-color="#A9EEFE"/>
<stop offset="0.35" stop-color="#C8F4FE"/>
<stop offset="0.49" stop-color="#E0F9FF"/>
<stop offset="0.64" stop-color="#F2FCFF"/>
<stop offset="0.8" stop-color="#FCFEFF"/>
<stop offset="1" stop-color="white"/>
</linearGradient>
<linearGradient id="paint14_linear" x1="10233.5" y1="878.988" x2="10005.7" y2="239.606" gradientUnits="userSpaceOnUse">
<stop stop-color="#68E1FD"/>
<stop offset="0.08" stop-color="#84E6FD"/>
<stop offset="0.21" stop-color="#A9EEFE"/>
<stop offset="0.35" stop-color="#C8F4FE"/>
<stop offset="0.49" stop-color="#E0F9FF"/>
<stop offset="0.64" stop-color="#F2FCFF"/>
<stop offset="0.8" stop-color="#FCFEFF"/>
<stop offset="1" stop-color="white"/>
</linearGradient>
<linearGradient id="paint15_linear" x1="25869.4" y1="-22642.9" x2="15321.2" y2="-22759.7" gradientUnits="userSpaceOnUse">
<stop stop-color="white" stop-opacity="0"/>
<stop offset="1" stop-color="white"/>
</linearGradient>
<clipPath id="clip0">
<rect width="215.329" height="230" fill="white"/>
</clipPath>
</defs>
</svg>
